<?xml version="1.0" standalone="no"?><!DOCTYPE svg PUBLIC "-//W3C//DTD SVG 1.1//EN" "http://www.w3.org/Graphics/SVG/1.1/DTD/svg11.dtd"><svg t="1742179626418" class="icon" viewBox="0 0 1024 1024" version="1.1" xmlns="http://www.w3.org/2000/svg" p-id="4939" xmlns:xlink="http://www.w3.org/1999/xlink" width="200" height="200"><path d="M856.812308 297.905231l19.298461 34.343384-351.192615 196.923077-19.298462-34.343384z" fill="#000000" p-id="4940"></path><path d="M492.307692 157.735385l39.384616-0.393847 3.268923 354.461539-39.384616 0.393846z" fill="#000000" p-id="4941"></path><path d="M148.046769 332.327385l18.983385-34.500923 357.730461 196.923076-18.983384 34.500924z" fill="#000000" p-id="4942"></path><path d="M167.030154 726.173538l-18.983385-34.500923 357.730462-196.923077 18.983384 34.500924z" fill="#000000" p-id="4943"></path><path d="M531.692308 866.658462l-39.384616-0.393847 3.268923-354.461538 39.384616 0.393846z" fill="#000000" p-id="4944"></path><path d="M876.110769 691.751385l-19.298461 34.343384-351.153231-196.923077 19.259077-34.343384z" fill="#000000" p-id="4945"></path><path d="M181.169231 330.436923v363.126154l330.830769 147.022769 330.830769-147.022769V330.436923L512 183.414154 181.169231 330.436923zM512 131.662769l378.092308 168.054154v424.566154L512 892.337231 133.907692 724.283077V299.716923L512 131.662769z" fill="#000000" p-id="4946"></path><path d="M512 157.538462m-78.769231 0a78.769231 78.769231 0 1 0 157.538462 0 78.769231 78.769231 0 1 0-157.538462 0Z" fill="#000000" p-id="4947"></path><path d="M512 512m-78.769231 0a78.769231 78.769231 0 1 0 157.538462 0 78.769231 78.769231 0 1 0-157.538462 0Z" fill="#000000" p-id="4948"></path><path d="M512 866.461538m-78.769231 0a78.769231 78.769231 0 1 0 157.538462 0 78.769231 78.769231 0 1 0-157.538462 0Z" fill="#000000" p-id="4949"></path><path d="M157.538462 708.923077m-78.769231 0a78.769231 78.769231 0 1 0 157.538461 0 78.769231 78.769231 0 1 0-157.538461 0Z" fill="#000000" p-id="4950"></path><path d="M866.461538 708.923077m-78.76923 0a78.769231 78.769231 0 1 0 157.538461 0 78.769231 78.769231 0 1 0-157.538461 0Z" fill="#000000" p-id="4951"></path><path d="M157.538462 315.076923m-78.769231 0a78.769231 78.769231 0 1 0 157.538461 0 78.769231 78.769231 0 1 0-157.538461 0Z" fill="#000000" p-id="4952"></path><path d="M866.461538 315.076923m-78.76923 0a78.769231 78.769231 0 1 0 157.538461 0 78.769231 78.769231 0 1 0-157.538461 0Z" fill="#000000" p-id="4953"></path></svg>